# 3ds Max Wavefront OBJ Exporter v0.99 - (c)2007 guruware
# File Created: 18.11.2025 11:34:12

mtllib OBJ_Key.mtl

#
# object Box001
#

v  -0.1587 0.0000 0.2359
v  -0.1587 0.0000 -0.2359
v  0.1587 0.0000 -0.2359
v  0.1587 0.0000 0.2359
v  -0.2642 4.8658 0.2361
v  0.2590 4.8725 0.2361
v  0.2642 4.8658 -0.2360
v  -0.2642 4.8658 -0.2360
v  -0.4660 0.5463 0.2359
v  -0.3892 0.1366 0.2359
v  0.3892 0.1366 0.2359
v  0.4660 0.5463 0.2359
v  0.4660 0.5463 -0.2359
v  0.4660 3.4848 -0.2360
v  0.4628 3.4781 0.2361
v  -0.4660 0.5463 -0.2359
v  -0.4660 3.4848 -0.2360
v  -0.4660 3.4848 0.2361
v  1.1636 4.0298 0.2361
v  1.1601 4.0311 -0.2360
v  1.1601 4.3195 -0.2360
v  1.1636 4.3209 0.2361
v  -1.1601 4.0311 -0.2360
v  -1.1601 4.0311 0.2361
v  -1.1601 4.3195 0.2361
v  -1.1601 4.3195 -0.2360
v  0.6892 3.4848 -0.2360
v  0.6881 3.4781 0.2361
v  0.6363 4.8658 -0.2360
v  0.5075 5.5687 -0.2357
v  0.5075 5.5687 0.2352
v  0.9039 5.4628 0.2352
v  0.9039 5.4628 -0.2357
v  0.6347 4.8725 0.2361
v  -0.6892 3.4848 0.2361
v  -0.6892 3.4848 -0.2360
v  -0.6363 4.8658 0.2361
v  -0.9693 4.7292 0.2361
v  -0.9693 3.6214 0.2361
v  -0.5075 5.5687 0.2352
v  -0.5075 5.5687 -0.2357
v  -0.9039 5.4628 -0.2357
v  -0.9039 5.4628 0.2352
v  -0.9693 3.6214 -0.2360
v  -0.9693 4.7292 -0.2360
v  0.9709 3.6160 0.2361
v  0.9693 3.6214 -0.2360
v  0.9693 4.7292 -0.2360
v  0.9709 4.7346 0.2361
v  -0.6363 4.8658 -0.2360
v  -0.3892 0.1366 -0.2359
v  0.3892 0.1366 -0.2359
v  0.0514 0.4134 0.1824
v  0.0514 0.4134 -0.1824
v  0.8609 0.4134 -0.1824
v  0.8609 0.4134 0.1824
v  0.0514 1.7229 0.1824
v  0.8609 1.7229 0.1824
v  0.8609 1.7229 -0.1824
v  0.0514 1.7229 -0.1824
v  0.8609 0.7126 0.1824
v  0.0514 0.7126 0.1824
v  1.1801 0.4928 0.1446
v  1.1801 0.4928 -0.1446
v  1.1801 0.6331 -0.1446
v  1.1801 0.6331 0.1446
v  0.0514 0.7126 -0.1824
v  0.8609 0.7126 -0.1824
v  0.8609 1.3490 0.1824
v  0.0514 1.3490 0.1824
v  1.1801 1.4284 -0.1446
v  1.1801 1.6434 -0.1446
v  1.1801 1.6434 0.1446
v  1.1801 1.4284 0.1446
v  0.0514 1.3490 -0.1824
v  0.8609 1.3490 -0.1824
v  0.8609 1.1695 0.1824
v  0.0514 1.1695 0.1824
v  0.8609 1.1695 -0.1824
v  0.0514 1.1695 -0.1824
v  0.8609 0.9084 0.1824
v  0.0514 0.9084 0.1824
v  1.1801 0.9878 -0.1446
v  1.1801 1.0900 -0.1446
v  1.1801 1.0900 0.1446
v  1.1801 0.9878 0.1446
v  0.0514 0.9084 -0.1824
v  0.8609 0.9084 -0.1824
v  1.0017 0.4134 -0.1446
v  1.0017 0.4134 0.1446
v  1.0017 0.7126 -0.1446
v  1.0017 0.7126 0.1446
v  1.0017 1.7229 0.1446
v  1.0017 1.7229 -0.1446
v  1.0017 1.3490 0.1446
v  1.0017 1.3490 -0.1446
v  1.0017 1.1695 0.1446
v  1.0017 1.1695 -0.1446
v  1.0017 0.9084 0.1446
v  1.0017 0.9084 -0.1446
# 100 vertices

vn -0.2004 -0.7311 0.6522
vn -0.2004 -0.7311 -0.6522
vn 0.2004 -0.7311 -0.6522
vn 0.2004 -0.7311 0.6522
vn 0.2882 0.4108 0.8650
vn -0.2996 0.4200 0.8566
vn -0.2890 0.4058 -0.8671
vn 0.2926 0.4111 -0.8634
vn -0.7237 -0.0673 0.6869
vn -0.6396 -0.4476 0.6250
vn 0.6396 -0.4476 0.6250
vn 0.7238 -0.0669 0.6867
vn 0.7237 -0.0673 -0.6869
vn 0.2983 -0.3023 -0.9053
vn 0.3047 -0.3003 0.9039
vn -0.7237 -0.0673 -0.6869
vn -0.3015 -0.3015 -0.9045
vn -0.3015 -0.3015 0.9045
vn 0.7346 -0.1628 0.6586
vn 0.7297 -0.1614 -0.6644
vn 0.7297 0.1614 -0.6644
vn 0.7347 0.1628 0.6586
vn -0.7322 -0.1621 -0.6616
vn -0.7322 -0.1621 0.6616
vn -0.7322 0.1621 0.6615
vn -0.7322 0.1621 -0.6615
vn 0.1686 -0.7278 -0.6647
vn 0.1694 -0.7365 0.6549
vn 0.3868 0.1577 -0.9086
vn -0.3817 0.7187 -0.5811
vn -0.3780 0.7205 0.5814
vn 0.7438 0.3512 0.5687
vn 0.7424 0.3533 -0.5693
vn 0.3889 0.1517 0.9087
vn -0.1690 -0.7322 0.6598
vn -0.1690 -0.7322 -0.6598
vn -0.3883 0.1559 0.9083
vn -0.5342 0.5597 0.6336
vn -0.5487 -0.5390 0.6391
vn 0.3817 0.7190 0.5809
vn 0.3817 0.7187 -0.5811
vn -0.7424 0.3533 -0.5693
vn -0.7425 0.3535 0.5690
vn -0.5487 -0.5390 -0.6391
vn -0.5342 0.5597 -0.6336
vn 0.5504 -0.5419 0.6351
vn 0.5470 -0.5360 -0.6430
vn 0.5326 0.5566 -0.6375
vn 0.5358 0.5627 0.6296
vn -0.3884 0.1554 -0.9083
vn -0.6396 -0.4476 -0.6250
vn 0.6396 -0.4476 -0.6250
vn -0.5774 -0.5774 0.5774
vn -0.5774 -0.5774 -0.5774
vn 0.0960 -0.6788 -0.7280
vn 0.0960 -0.6788 0.7280
vn -0.5774 0.5774 0.5774
vn 0.0960 0.6788 0.7280
vn 0.0960 0.6788 -0.7280
vn -0.5774 0.5774 -0.5774
vn 0.3784 0.2503 0.8912
vn -0.7071 0.0000 0.7071
vn 0.6693 -0.4346 0.6026
vn 0.6693 -0.4346 -0.6026
vn 0.6693 0.4346 -0.6026
vn 0.6693 0.4346 0.6026
vn -0.7071 0.0000 -0.7071
vn 0.3784 0.2503 -0.8912
vn 0.3784 -0.2503 0.8912
vn 0.3784 -0.2503 -0.8912
vn 0.2407 -0.7518 -0.6139
vn 0.2407 -0.7518 0.6139
vn 0.2407 0.7518 -0.6139
vn 0.2407 0.7518 0.6139
# 74 vertex normals

vt 0.0605 0.2519 0.0000
vt 0.0605 0.2992 0.0000
vt 0.0444 0.2992 0.0000
vt 0.0444 0.2519 0.0000
vt 0.0984 0.1607 0.0000
vt 0.1480 0.1591 0.0000
vt 0.1589 0.1694 0.0000
vt 0.1094 0.1710 0.0000
vt 0.2586 0.1219 0.0000
vt 0.2586 0.1004 0.0000
vt 0.3960 0.1004 0.0000
vt 0.3960 0.1219 0.0000
vt 0.3073 0.2663 0.0000
vt 0.3799 0.2663 0.0000
vt 0.3799 0.3275 0.0000
vt 0.3073 0.3275 0.0000
vt 0.1463 0.4256 0.0000
vt 0.2837 0.4256 0.0000
vt 0.2837 0.5414 0.0000
vt 0.1463 0.5414 0.0000
vt 0.2284 0.2663 0.0000
vt 0.3010 0.2663 0.0000
vt 0.3010 0.3275 0.0000
vt 0.2284 0.3275 0.0000
vt 0.3977 0.5718 0.0000
vt 0.4329 0.5699 0.0000
vt 0.4247 0.6552 0.0000
vt 0.4048 0.6562 0.0000
vt 0.2240 0.0792 0.0000
vt 0.2322 0.0868 0.0000
vt 0.2322 0.1140 0.0000
vt 0.2240 0.1064 0.0000
vt 0.3975 0.5699 0.0000
vt 0.4330 0.5718 0.0000
vt 0.4247 0.6598 0.0000
vt 0.4046 0.6587 0.0000
vt 0.0333 0.0932 0.0000
vt 0.0252 0.0856 0.0000
vt 0.0252 0.1128 0.0000
vt 0.0333 0.1205 0.0000
vt 0.1683 0.0294 0.0000
vt 0.1765 0.0370 0.0000
vt 0.1974 0.0363 0.0000
vt 0.1893 0.0287 0.0000
vt 0.3910 0.6571 0.0000
vt 0.3890 0.5694 0.0000
vt 0.1791 0.2326 0.0000
vt 0.1734 0.2272 0.0000
vt 0.2106 0.2160 0.0000
vt 0.2163 0.2214 0.0000
vt 0.4414 0.5695 0.0000
vt 0.4394 0.6553 0.0000
vt 0.0890 0.0398 0.0000
vt 0.0809 0.0322 0.0000
vt 0.0600 0.0329 0.0000
vt 0.0681 0.0405 0.0000
vt 0.3913 0.6578 0.0000
vt 0.3805 0.6499 0.0000
vt 0.3805 0.5812 0.0000
vt 0.3893 0.5722 0.0000
vt 0.0782 0.2303 0.0000
vt 0.0839 0.2356 0.0000
vt 0.0467 0.2268 0.0000
vt 0.0410 0.2215 0.0000
vt 0.4503 0.5814 0.0000
vt 0.4556 0.6076 0.0000
vt 0.4556 0.6259 0.0000
vt 0.4503 0.6516 0.0000
vt 0.2109 0.0409 0.0000
vt 0.2190 0.0485 0.0000
vt 0.2190 0.1532 0.0000
vt 0.2109 0.1455 0.0000
vt 0.0465 0.0541 0.0000
vt 0.0383 0.0465 0.0000
vt 0.0383 0.1511 0.0000
vt 0.0465 0.1587 0.0000
vt 0.1924 0.1669 0.0000
vt 0.1843 0.1593 0.0000
vt 0.0649 0.1631 0.0000
vt 0.0730 0.1708 0.0000
vt 0.0761 0.2519 0.0000
vt 0.0761 0.2992 0.0000
vt 0.0288 0.2992 0.0000
vt 0.0288 0.2519 0.0000
vt 0.3073 0.2549 0.0000
vt 0.3799 0.2549 0.0000
vt 0.2284 0.2549 0.0000
vt 0.3010 0.2549 0.0000
vt 0.3960 0.2378 0.0000
vt 0.2586 0.2378 0.0000
vt 0.3039 0.1004 0.0000
vt 0.3507 0.1004 0.0000
vt 0.1463 0.4040 0.0000
vt 0.1916 0.4040 0.0000
vt 0.2384 0.4040 0.0000
vt 0.2837 0.4040 0.0000
vt 0.4395 0.6596 0.0000
vt 0.4415 0.5722 0.0000
vt 0.3802 0.6478 0.0000
vt 0.3749 0.6216 0.0000
vt 0.3749 0.6033 0.0000
vt 0.3802 0.5776 0.0000
vt 0.4501 0.5775 0.0000
vt 0.4554 0.6026 0.0000
vt 0.4554 0.6205 0.0000
vt 0.4501 0.6463 0.0000
vt 0.3752 0.6248 0.0000
vt 0.3752 0.6069 0.0000
vt 0.9684 0.0000 0.0000
vt 0.9684 0.1207 0.0000
vt 0.8478 0.1207 0.0000
vt 0.8478 0.0000 0.0000
vt 0.8478 0.1220 0.0000
vt 0.9684 0.1220 0.0000
vt 0.9684 0.2427 0.0000
vt 0.8478 0.2427 0.0000
vt 0.7916 0.2874 0.0000
vt 0.9575 0.2874 0.0000
vt 0.9575 0.3254 0.0000
vt 0.7916 0.3254 0.0000
vt 0.5593 0.0174 0.0000
vt 0.8455 0.0174 0.0000
vt 0.8455 0.0480 0.0000
vt 0.5593 0.0480 0.0000
vt 0.8340 0.4547 0.0000
vt 1.0000 0.4547 0.0000
vt 1.0000 0.4926 0.0000
vt 0.8340 0.4926 0.0000
vt 0.5593 0.2874 0.0000
vt 0.7894 0.2874 0.0000
vt 0.7894 0.3400 0.0000
vt 0.5593 0.3400 0.0000
vt 0.9575 0.4060 0.0000
vt 0.9575 0.4534 0.0000
vt 0.7916 0.4534 0.0000
vt 0.7916 0.4060 0.0000
vt 0.8455 0.2218 0.0000
vt 0.8455 0.2688 0.0000
vt 0.5593 0.2688 0.0000
vt 0.5593 0.2218 0.0000
vt 1.0000 0.5733 0.0000
vt 1.0000 0.6207 0.0000
vt 0.8340 0.6207 0.0000
vt 0.8340 0.5733 0.0000
vt 0.7894 0.4518 0.0000
vt 0.7894 0.5175 0.0000
vt 0.5593 0.5175 0.0000
vt 0.5593 0.4518 0.0000
vt 0.9575 0.3833 0.0000
vt 0.7916 0.3833 0.0000
vt 0.8455 0.1652 0.0000
vt 0.8455 0.2044 0.0000
vt 0.5593 0.2044 0.0000
vt 0.5593 0.1652 0.0000
vt 1.0000 0.5505 0.0000
vt 0.8340 0.5505 0.0000
vt 0.7894 0.4202 0.0000
vt 0.5593 0.4202 0.0000
vt 0.9575 0.3502 0.0000
vt 0.7916 0.3502 0.0000
vt 0.8455 0.1255 0.0000
vt 0.8455 0.1479 0.0000
vt 0.5593 0.1479 0.0000
vt 0.5593 0.1255 0.0000
vt 1.0000 0.5174 0.0000
vt 0.8340 0.5174 0.0000
vt 0.7894 0.3744 0.0000
vt 0.5593 0.3744 0.0000
vt 0.8455 0.0654 0.0000
vt 0.8455 0.1082 0.0000
vt 0.5593 0.1082 0.0000
vt 0.5593 0.0654 0.0000
vt 0.5593 0.0000 0.0000
vt 0.8455 0.0000 0.0000
vt 0.8455 0.2861 0.0000
vt 0.5593 0.2861 0.0000
# 176 texture coords

o Box001
g Box001
usemtl wire_213154229
s off
f 1/1/1 2/2/2 3/3/3 4/4/4 
f 5/5/5 6/6/6 7/7/7 8/8/8 
f 9/9/9 10/10/10 11/11/11 12/12/12 
f 12/13/12 13/14/13 14/15/14 15/16/15 
f 13/17/13 16/18/16 17/19/17 14/20/14 
f 16/21/16 9/22/9 18/23/18 17/24/17 
s 4
f 18/25/18 15/26/15 6/27/6 5/28/5 
s off
f 19/29/19 20/30/20 21/31/21 22/32/22 
s 4
f 14/33/14 17/34/17 8/35/8 7/36/7 
s off
f 23/37/23 24/38/24 25/39/25 26/40/26 
f 15/41/15 14/42/14 27/43/27 28/44/28 
s 4
f 14/33/14 7/36/7 29/45/29 27/46/27 
s off
f 30/47/30 31/48/31 32/49/32 33/50/33 
s 4
f 6/27/6 15/26/15 28/51/28 34/52/34 
s off
f 17/53/17 18/54/18 35/55/35 36/56/36 
s 4
f 37/57/37 38/58/38 39/59/39 35/60/35 
s off
f 40/61/40 41/62/41 42/63/42 43/64/43 
s 4
f 44/65/44 23/66/23 26/67/26 45/68/45 
s off
f 20/30/20 19/29/19 46/69/46 47/70/47 
f 22/32/22 21/31/21 48/71/48 49/72/49 
f 24/38/24 23/37/23 44/73/44 39/74/39 
f 26/40/26 25/39/25 38/75/38 45/76/45 
f 28/44/28 27/43/27 47/70/47 46/69/46 
f 29/77/29 34/78/34 49/72/49 48/71/48 
f 36/56/36 35/55/35 39/74/39 44/73/44 
f 37/79/37 50/80/50 45/76/45 38/75/38 
f 7/7/7 6/6/6 31/48/31 30/47/30 
f 6/6/6 34/78/34 32/49/32 31/48/31 
f 34/78/34 29/77/29 33/50/33 32/49/32 
f 29/77/29 7/7/7 30/47/30 33/50/33 
f 5/5/5 8/8/8 41/62/41 40/61/40 
f 8/8/8 50/80/50 42/63/42 41/62/41 
f 50/80/50 37/79/37 43/64/43 42/63/42 
f 37/79/37 5/5/5 40/61/40 43/64/43 
f 2/2/2 1/1/1 10/81/10 51/82/51 
f 4/4/4 3/3/3 52/83/52 11/84/11 
f 13/14/13 12/13/12 11/85/11 52/86/52 
f 9/22/9 16/21/16 51/87/51 10/88/10 
f 12/12/12 15/89/15 18/90/18 9/9/9 
f 10/10/10 1/91/1 4/92/4 11/11/11 
f 52/93/52 3/94/3 2/95/2 51/96/51 
f 51/96/51 16/18/16 13/17/13 52/93/52 
s 4
f 50/97/50 8/35/8 17/34/17 36/98/36 
f 36/98/36 44/65/44 45/68/45 50/97/50 
f 48/99/48 21/100/21 20/101/20 47/102/47 
f 47/102/47 27/46/27 29/45/29 48/99/48 
f 46/103/46 19/104/19 22/105/22 49/106/49 
f 49/106/49 34/52/34 28/51/28 46/103/46 
f 35/60/35 18/25/18 5/28/5 37/57/37 
f 38/58/38 25/107/25 24/108/24 39/59/39 
s off
f 53/109/53 54/110/54 55/111/55 56/112/56 
f 57/113/57 58/114/58 59/115/59 60/116/60 
f 53/117/53 56/118/56 61/119/61 62/120/62 
f 63/121/63 64/122/64 65/123/65 66/124/66 
f 55/125/55 54/126/54 67/127/67 68/128/68 
f 54/129/54 53/130/53 62/131/62 67/132/67 
f 69/133/69 58/134/58 57/135/57 70/136/62 
f 71/137/64 72/138/65 73/139/66 74/140/63 
f 75/141/67 60/142/60 59/143/59 76/144/70 
f 70/145/62 57/146/57 60/147/60 75/148/67 
f 77/149/61 69/133/69 70/136/62 78/150/62 
f 79/151/68 76/152/70 69/153/69 77/154/61 
f 80/155/67 75/141/67 76/144/70 79/156/68 
f 78/157/62 70/145/62 75/148/67 80/158/67 
f 81/159/69 77/149/61 78/150/62 82/160/62 
f 83/161/64 84/162/65 85/163/66 86/164/63 
f 87/165/67 80/155/67 79/156/68 88/166/70 
f 82/167/62 78/157/62 80/158/67 87/168/67 
f 61/119/61 81/159/69 82/160/62 62/120/62 
f 68/169/68 88/170/70 81/171/69 61/172/61 
f 67/127/67 87/165/67 88/166/70 68/128/68 
f 62/131/62 82/167/62 87/168/67 67/132/67 
f 56/173/56 55/174/55 89/174/71 90/173/72 
f 55/174/55 68/169/68 91/169/73 89/174/71 
f 68/169/68 61/172/61 92/172/74 91/169/73 
f 90/173/72 63/121/63 66/124/66 92/172/74 
f 59/175/59 58/176/58 93/176/74 94/175/73 
f 95/153/72 74/140/63 73/139/66 93/176/74 
f 69/153/69 76/152/70 96/152/71 95/153/72 
f 76/152/70 59/175/59 94/175/73 96/152/71 
f 79/151/68 77/154/61 97/154/74 98/151/73 
f 99/171/72 86/164/63 85/163/66 97/154/74 
f 81/171/69 88/170/70 100/170/71 99/171/72 
f 88/170/70 79/151/68 98/151/73 100/170/71 
f 63/121/63 90/173/72 89/174/71 64/122/64 
f 65/123/65 91/169/73 92/172/74 66/124/66 
f 72/138/65 94/175/73 93/176/74 73/139/66 
f 74/140/63 95/153/72 96/152/71 71/137/64 
f 84/162/65 98/151/73 97/154/74 85/163/66 
f 86/164/63 99/171/72 100/170/71 83/161/64 
f 93/176/74 58/176/58 69/153/69 95/153/72 
f 97/154/74 77/154/61 81/171/69 99/171/72 
f 92/172/74 61/172/61 56/173/56 90/173/72 
f 94/175/73 72/138/65 71/137/64 96/152/71 
f 98/151/73 84/162/65 83/161/64 100/170/71 
f 91/169/73 65/123/65 64/122/64 89/174/71 
# 96 polygons

